<?xml version="1.0" encoding="UTF-8"?>
<svg xmlns="http://www.w3.org/2000/svg" viewBox="0 0 400 400" width="400" height="400">
  <rect width="400" height="400" fill="white" rx="8"/>
  <g>
    <rect x="16" y="16" width="16" height="16" fill="#1a1410"/><rect x="32" y="16" width="16" height="16" fill="#1a1410"/><rect x="48" y="16" width="16" height="16" fill="#1a1410"/><rect x="64" y="16" width="16" height="16" fill="#1a1410"/><rect x="80" y="16" width="16" height="16" fill="#1a1410"/><rect x="96" y="16" width="16" height="16" fill="#1a1410"/><rect x="112" y="16" width="16" height="16" fill="#1a1410"/><rect x="16" y="32" width="16" height="16" fill="#1a1410"/><rect x="112" y="32" width="16" height="16" fill="#1a1410"/><rect x="16" y="48" width="16" height="16" fill="#1a1410"/><rect x="48" y="48" width="16" height="16" fill="#1a1410"/><rect x="64" y="48" width="16" height="16" fill="#1a1410"/><rect x="80" y="48" width="16" height="16" fill="#1a1410"/><rect x="112" y="48" width="16" height="16" fill="#1a1410"/><rect x="16" y="64" width="16" height="16" fill="#1a1410"/><rect x="48" y="64" width="16" height="16" fill="#1a1410"/><rect x="64" y="64" width="16" height="16" fill="#1a1410"/><rect x="80" y="64" width="16" height="16" fill="#1a1410"/><rect x="112" y="64" width="16" height="16" fill="#1a1410"/><rect x="16" y="80" width="16" height="16" fill="#1a1410"/><rect x="48" y="80" width="16" height="16" fill="#1a1410"/><rect x="64" y="80" width="16" height="16" fill="#1a1410"/><rect x="80" y="80" width="16" height="16" fill="#1a1410"/><rect x="112" y="80" width="16" height="16" fill="#1a1410"/><rect x="16" y="96" width="16" height="16" fill="#1a1410"/><rect x="112" y="96" width="16" height="16" fill="#1a1410"/><rect x="16" y="112" width="16" height="16" fill="#1a1410"/><rect x="32" y="112" width="16" height="16" fill="#1a1410"/><rect x="48" y="112" width="16" height="16" fill="#1a1410"/><rect x="64" y="112" width="16" height="16" fill="#1a1410"/><rect x="80" y="112" width="16" height="16" fill="#1a1410"/><rect x="96" y="112" width="16" height="16" fill="#1a1410"/><rect x="112" y="112" width="16" height="16" fill="#1a1410"/><rect x="272" y="16" width="16" height="16" fill="#1a1410"/><rect x="288" y="16" width="16" height="16" fill="#1a1410"/><rect x="304" y="16" width="16" height="16" fill="#1a1410"/><rect x="320" y="16" width="16" height="16" fill="#1a1410"/><rect x="336" y="16" width="16" height="16" fill="#1a1410"/><rect x="352" y="16" width="16" height="16" fill="#1a1410"/><rect x="368" y="16" width="16" height="16" fill="#1a1410"/><rect x="272" y="32" width="16" height="16" fill="#1a1410"/><rect x="368" y="32" width="16" height="16" fill="#1a1410"/><rect x="272" y="48" width="16" height="16" fill="#1a1410"/><rect x="304" y="48" width="16" height="16" fill="#1a1410"/><rect x="320" y="48" width="16" height="16" fill="#1a1410"/><rect x="336" y="48" width="16" height="16" fill="#1a1410"/><rect x="368" y="48" width="16" height="16" fill="#1a1410"/><rect x="272" y="64" width="16" height="16" fill="#1a1410"/><rect x="304" y="64" width="16" height="16" fill="#1a1410"/><rect x="320" y="64" width="16" height="16" fill="#1a1410"/><rect x="336" y="64" width="16" height="16" fill="#1a1410"/><rect x="368" y="64" width="16" height="16" fill="#1a1410"/><rect x="272" y="80" width="16" height="16" fill="#1a1410"/><rect x="304" y="80" width="16" height="16" fill="#1a1410"/><rect x="320" y="80" width="16" height="16" fill="#1a1410"/><rect x="336" y="80" width="16" height="16" fill="#1a1410"/><rect x="368" y="80" width="16" height="16" fill="#1a1410"/><rect x="272" y="96" width="16" height="16" fill="#1a1410"/><rect x="368" y="96" width="16" height="16" fill="#1a1410"/><rect x="272" y="112" width="16" height="16" fill="#1a1410"/><rect x="288" y="112" width="16" height="16" fill="#1a1410"/><rect x="304" y="112" width="16" height="16" fill="#1a1410"/><rect x="320" y="112" width="16" height="16" fill="#1a1410"/><rect x="336" y="112" width="16" height="16" fill="#1a1410"/><rect x="352" y="112" width="16" height="16" fill="#1a1410"/><rect x="368" y="112" width="16" height="16" fill="#1a1410"/><rect x="16" y="272" width="16" height="16" fill="#1a1410"/><rect x="32" y="272" width="16" height="16" fill="#1a1410"/><rect x="48" y="272" width="16" height="16" fill="#1a1410"/><rect x="64" y="272" width="16" height="16" fill="#1a1410"/><rect x="80" y="272" width="16" height="16" fill="#1a1410"/><rect x="96" y="272" width="16" height="16" fill="#1a1410"/><rect x="112" y="272" width="16" height="16" fill="#1a1410"/><rect x="16" y="288" width="16" height="16" fill="#1a1410"/><rect x="112" y="288" width="16" height="16" fill="#1a1410"/><rect x="16" y="304" width="16" height="16" fill="#1a1410"/><rect x="48" y="304" width="16" height="16" fill="#1a1410"/><rect x="64" y="304" width="16" height="16" fill="#1a1410"/><rect x="80" y="304" width="16" height="16" fill="#1a1410"/><rect x="112" y="304" width="16" height="16" fill="#1a1410"/><rect x="16" y="320" width="16" height="16" fill="#1a1410"/><rect x="48" y="320" width="16" height="16" fill="#1a1410"/><rect x="64" y="320" width="16" height="16" fill="#1a1410"/><rect x="80" y="320" width="16" height="16" fill="#1a1410"/><rect x="112" y="320" width="16" height="16" fill="#1a1410"/><rect x="16" y="336" width="16" height="16" fill="#1a1410"/><rect x="48" y="336" width="16" height="16" fill="#1a1410"/><rect x="64" y="336" width="16" height="16" fill="#1a1410"/><rect x="80" y="336" width="16" height="16" fill="#1a1410"/><rect x="112" y="336" width="16" height="16" fill="#1a1410"/><rect x="16" y="352" width="16" height="16" fill="#1a1410"/><rect x="112" y="352" width="16" height="16" fill="#1a1410"/><rect x="16" y="368" width="16" height="16" fill="#1a1410"/><rect x="32" y="368" width="16" height="16" fill="#1a1410"/><rect x="48" y="368" width="16" height="16" fill="#1a1410"/><rect x="64" y="368" width="16" height="16" fill="#1a1410"/><rect x="80" y="368" width="16" height="16" fill="#1a1410"/><rect x="96" y="368" width="16" height="16" fill="#1a1410"/><rect x="112" y="368" width="16" height="16" fill="#1a1410"/><rect x="144" y="0" width="16" height="16" fill="#1a1410" rx="1"/><rect x="160" y="0" width="16" height="16" fill="#1a1410" rx="1"/><rect x="176" y="0" width="16" height="16" fill="#1a1410" rx="1"/><rect x="240" y="0" width="16" height="16" fill="#1a1410" rx="1"/><rect x="256" y="0" width="16" height="16" fill="#1a1410" rx="1"/><rect x="176" y="16" width="16" height="16" fill="#1a1410" rx="1"/><rect x="192" y="16" width="16" height="16" fill="#1a1410" rx="1"/><rect x="240" y="16" width="16" height="16" fill="#1a1410" rx="1"/><rect x="160" y="32" width="16" height="16" fill="#1a1410" rx="1"/><rect x="176" y="32" width="16" height="16" fill="#1a1410" rx="1"/><rect x="224" y="32" width="16" height="16" fill="#1a1410" rx="1"/><rect x="240" y="32" width="16" height="16" fill="#1a1410" rx="1"/><rect x="176" y="48" width="16" height="16" fill="#1a1410" rx="1"/><rect x="192" y="48" width="16" height="16" fill="#1a1410" rx="1"/><rect x="240" y="48" width="16" height="16" fill="#1a1410" rx="1"/><rect x="256" y="48" width="16" height="16" fill="#1a1410" rx="1"/><rect x="176" y="64" width="16" height="16" fill="#1a1410" rx="1"/><rect x="224" y="64" width="16" height="16" fill="#1a1410" rx="1"/><rect x="144" y="80" width="16" height="16" fill="#1a1410" rx="1"/><rect x="160" y="80" width="16" height="16" fill="#1a1410" rx="1"/><rect x="176" y="80" width="16" height="16" fill="#1a1410" rx="1"/><rect x="192" y="80" width="16" height="16" fill="#1a1410" rx="1"/><rect x="144" y="96" width="16" height="16" fill="#1a1410" rx="1"/><rect x="176" y="96" width="16" height="16" fill="#1a1410" rx="1"/><rect x="224" y="96" width="16" height="16" fill="#1a1410" rx="1"/><rect x="256" y="96" width="16" height="16" fill="#1a1410" rx="1"/><rect x="144" y="112" width="16" height="16" fill="#1a1410" rx="1"/><rect x="160" y="112" width="16" height="16" fill="#1a1410" rx="1"/><rect x="176" y="112" width="16" height="16" fill="#1a1410" rx="1"/><rect x="192" y="112" width="16" height="16" fill="#1a1410" rx="1"/><rect x="144" y="128" width="16" height="16" fill="#1a1410" rx="1"/><rect x="176" y="128" width="16" height="16" fill="#1a1410" rx="1"/><rect x="208" y="144" width="16" height="16" fill="#1a1410" rx="1"/><rect x="224" y="144" width="16" height="16" fill="#1a1410" rx="1"/><rect x="240" y="144" width="16" height="16" fill="#1a1410" rx="1"/><rect x="256" y="144" width="16" height="16" fill="#1a1410" rx="1"/><rect x="272" y="144" width="16" height="16" fill="#1a1410" rx="1"/><rect x="288" y="144" width="16" height="16" fill="#1a1410" rx="1"/><rect x="304" y="144" width="16" height="16" fill="#1a1410" rx="1"/><rect x="320" y="144" width="16" height="16" fill="#1a1410" rx="1"/><rect x="336" y="144" width="16" height="16" fill="#1a1410" rx="1"/><rect x="352" y="144" width="16" height="16" fill="#1a1410" rx="1"/><rect x="368" y="144" width="16" height="16" fill="#1a1410" rx="1"/><rect x="384" y="144" width="16" height="16" fill="#1a1410" rx="1"/><rect x="16" y="160" width="16" height="16" fill="#1a1410" rx="1"/><rect x="48" y="160" width="16" height="16" fill="#1a1410" rx="1"/><rect x="96" y="160" width="16" height="16" fill="#1a1410" rx="1"/><rect x="128" y="160" width="16" height="16" fill="#1a1410" rx="1"/><rect x="160" y="160" width="16" height="16" fill="#1a1410" rx="1"/><rect x="208" y="160" width="16" height="16" fill="#1a1410" rx="1"/><rect x="240" y="160" width="16" height="16" fill="#1a1410" rx="1"/><rect x="272" y="160" width="16" height="16" fill="#1a1410" rx="1"/><rect x="320" y="160" width="16" height="16" fill="#1a1410" rx="1"/><rect x="352" y="160" width="16" height="16" fill="#1a1410" rx="1"/><rect x="384" y="160" width="16" height="16" fill="#1a1410" rx="1"/><rect x="64" y="176" width="16" height="16" fill="#1a1410" rx="1"/><rect x="80" y="176" width="16" height="16" fill="#1a1410" rx="1"/><rect x="96" y="176" width="16" height="16" fill="#1a1410" rx="1"/><rect x="112" y="176" width="16" height="16" fill="#1a1410" rx="1"/><rect x="208" y="176" width="16" height="16" fill="#1a1410" rx="1"/><rect x="224" y="176" width="16" height="16" fill="#1a1410" rx="1"/><rect x="240" y="176" width="16" height="16" fill="#1a1410" rx="1"/><rect x="256" y="176" width="16" height="16" fill="#1a1410" rx="1"/><rect x="352" y="176" width="16" height="16" fill="#1a1410" rx="1"/><rect x="368" y="176" width="16" height="16" fill="#1a1410" rx="1"/><rect x="384" y="176" width="16" height="16" fill="#1a1410" rx="1"/><rect x="16" y="192" width="16" height="16" fill="#1a1410" rx="1"/><rect x="64" y="192" width="16" height="16" fill="#1a1410" rx="1"/><rect x="112" y="192" width="16" height="16" fill="#1a1410" rx="1"/><rect x="160" y="192" width="16" height="16" fill="#1a1410" rx="1"/><rect x="208" y="192" width="16" height="16" fill="#1a1410" rx="1"/><rect x="240" y="192" width="16" height="16" fill="#1a1410" rx="1"/><rect x="256" y="192" width="16" height="16" fill="#1a1410" rx="1"/><rect x="288" y="192" width="16" height="16" fill="#1a1410" rx="1"/><rect x="304" y="192" width="16" height="16" fill="#1a1410" rx="1"/><rect x="336" y="192" width="16" height="16" fill="#1a1410" rx="1"/><rect x="384" y="192" width="16" height="16" fill="#1a1410" rx="1"/><rect x="32" y="208" width="16" height="16" fill="#1a1410" rx="1"/><rect x="48" y="208" width="16" height="16" fill="#1a1410" rx="1"/><rect x="64" y="208" width="16" height="16" fill="#1a1410" rx="1"/><rect x="112" y="208" width="16" height="16" fill="#1a1410" rx="1"/><rect x="128" y="208" width="16" height="16" fill="#1a1410" rx="1"/><rect x="144" y="208" width="16" height="16" fill="#1a1410" rx="1"/><rect x="208" y="208" width="16" height="16" fill="#1a1410" rx="1"/><rect x="224" y="208" width="16" height="16" fill="#1a1410" rx="1"/><rect x="288" y="208" width="16" height="16" fill="#1a1410" rx="1"/><rect x="304" y="208" width="16" height="16" fill="#1a1410" rx="1"/><rect x="368" y="208" width="16" height="16" fill="#1a1410" rx="1"/><rect x="384" y="208" width="16" height="16" fill="#1a1410" rx="1"/><rect x="16" y="224" width="16" height="16" fill="#1a1410" rx="1"/><rect x="32" y="224" width="16" height="16" fill="#1a1410" rx="1"/><rect x="80" y="224" width="16" height="16" fill="#1a1410" rx="1"/><rect x="96" y="224" width="16" height="16" fill="#1a1410" rx="1"/><rect x="144" y="224" width="16" height="16" fill="#1a1410" rx="1"/><rect x="192" y="224" width="16" height="16" fill="#1a1410" rx="1"/><rect x="208" y="224" width="16" height="16" fill="#1a1410" rx="1"/><rect x="256" y="224" width="16" height="16" fill="#1a1410" rx="1"/><rect x="272" y="224" width="16" height="16" fill="#1a1410" rx="1"/><rect x="320" y="224" width="16" height="16" fill="#1a1410" rx="1"/><rect x="336" y="224" width="16" height="16" fill="#1a1410" rx="1"/><rect x="384" y="224" width="16" height="16" fill="#1a1410" rx="1"/><rect x="32" y="240" width="16" height="16" fill="#1a1410" rx="1"/><rect x="80" y="240" width="16" height="16" fill="#1a1410" rx="1"/><rect x="96" y="240" width="16" height="16" fill="#1a1410" rx="1"/><rect x="144" y="240" width="16" height="16" fill="#1a1410" rx="1"/><rect x="160" y="240" width="16" height="16" fill="#1a1410" rx="1"/><rect x="208" y="240" width="16" height="16" fill="#1a1410" rx="1"/><rect x="256" y="240" width="16" height="16" fill="#1a1410" rx="1"/><rect x="272" y="240" width="16" height="16" fill="#1a1410" rx="1"/><rect x="320" y="240" width="16" height="16" fill="#1a1410" rx="1"/><rect x="336" y="240" width="16" height="16" fill="#1a1410" rx="1"/><rect x="384" y="240" width="16" height="16" fill="#1a1410" rx="1"/><rect x="32" y="256" width="16" height="16" fill="#1a1410" rx="1"/><rect x="48" y="256" width="16" height="16" fill="#1a1410" rx="1"/><rect x="112" y="256" width="16" height="16" fill="#1a1410" rx="1"/><rect x="128" y="256" width="16" height="16" fill="#1a1410" rx="1"/><rect x="192" y="256" width="16" height="16" fill="#1a1410" rx="1"/><rect x="208" y="256" width="16" height="16" fill="#1a1410" rx="1"/><rect x="224" y="256" width="16" height="16" fill="#1a1410" rx="1"/><rect x="288" y="256" width="16" height="16" fill="#1a1410" rx="1"/><rect x="304" y="256" width="16" height="16" fill="#1a1410" rx="1"/><rect x="368" y="256" width="16" height="16" fill="#1a1410" rx="1"/><rect x="384" y="256" width="16" height="16" fill="#1a1410" rx="1"/><rect x="160" y="272" width="16" height="16" fill="#1a1410" rx="1"/><rect x="208" y="272" width="16" height="16" fill="#1a1410" rx="1"/><rect x="256" y="272" width="16" height="16" fill="#1a1410" rx="1"/><rect x="288" y="272" width="16" height="16" fill="#1a1410" rx="1"/><rect x="304" y="272" width="16" height="16" fill="#1a1410" rx="1"/><rect x="336" y="272" width="16" height="16" fill="#1a1410" rx="1"/><rect x="352" y="272" width="16" height="16" fill="#1a1410" rx="1"/><rect x="384" y="272" width="16" height="16" fill="#1a1410" rx="1"/><rect x="192" y="288" width="16" height="16" fill="#1a1410" rx="1"/><rect x="208" y="288" width="16" height="16" fill="#1a1410" rx="1"/><rect x="224" y="288" width="16" height="16" fill="#1a1410" rx="1"/><rect x="240" y="288" width="16" height="16" fill="#1a1410" rx="1"/><rect x="336" y="288" width="16" height="16" fill="#1a1410" rx="1"/><rect x="352" y="288" width="16" height="16" fill="#1a1410" rx="1"/><rect x="368" y="288" width="16" height="16" fill="#1a1410" rx="1"/><rect x="384" y="288" width="16" height="16" fill="#1a1410" rx="1"/><rect x="160" y="304" width="16" height="16" fill="#1a1410" rx="1"/><rect x="208" y="304" width="16" height="16" fill="#1a1410" rx="1"/><rect x="240" y="304" width="16" height="16" fill="#1a1410" rx="1"/><rect x="272" y="304" width="16" height="16" fill="#1a1410" rx="1"/><rect x="320" y="304" width="16" height="16" fill="#1a1410" rx="1"/><rect x="352" y="304" width="16" height="16" fill="#1a1410" rx="1"/><rect x="384" y="304" width="16" height="16" fill="#1a1410" rx="1"/><rect x="160" y="320" width="16" height="16" fill="#1a1410" rx="1"/><rect x="176" y="320" width="16" height="16" fill="#1a1410" rx="1"/><rect x="192" y="320" width="16" height="16" fill="#1a1410" rx="1"/><rect x="208" y="320" width="16" height="16" fill="#1a1410" rx="1"/><rect x="224" y="320" width="16" height="16" fill="#1a1410" rx="1"/><rect x="240" y="320" width="16" height="16" fill="#1a1410" rx="1"/><rect x="256" y="320" width="16" height="16" fill="#1a1410" rx="1"/><rect x="272" y="320" width="16" height="16" fill="#1a1410" rx="1"/><rect x="288" y="320" width="16" height="16" fill="#1a1410" rx="1"/><rect x="304" y="320" width="16" height="16" fill="#1a1410" rx="1"/><rect x="320" y="320" width="16" height="16" fill="#1a1410" rx="1"/><rect x="336" y="320" width="16" height="16" fill="#1a1410" rx="1"/><rect x="352" y="320" width="16" height="16" fill="#1a1410" rx="1"/><rect x="368" y="320" width="16" height="16" fill="#1a1410" rx="1"/><rect x="384" y="320" width="16" height="16" fill="#1a1410" rx="1"/><rect x="144" y="336" width="16" height="16" fill="#1a1410" rx="1"/><rect x="176" y="336" width="16" height="16" fill="#1a1410" rx="1"/><rect x="208" y="336" width="16" height="16" fill="#1a1410" rx="1"/><rect x="240" y="336" width="16" height="16" fill="#1a1410" rx="1"/><rect x="272" y="336" width="16" height="16" fill="#1a1410" rx="1"/><rect x="304" y="336" width="16" height="16" fill="#1a1410" rx="1"/><rect x="144" y="352" width="16" height="16" fill="#1a1410" rx="1"/><rect x="160" y="352" width="16" height="16" fill="#1a1410" rx="1"/><rect x="176" y="352" width="16" height="16" fill="#1a1410" rx="1"/><rect x="192" y="352" width="16" height="16" fill="#1a1410" rx="1"/><rect x="208" y="352" width="16" height="16" fill="#1a1410" rx="1"/><rect x="144" y="368" width="16" height="16" fill="#1a1410" rx="1"/><rect x="176" y="368" width="16" height="16" fill="#1a1410" rx="1"/><rect x="208" y="368" width="16" height="16" fill="#1a1410" rx="1"/><rect x="224" y="368" width="16" height="16" fill="#1a1410" rx="1"/><rect x="256" y="368" width="16" height="16" fill="#1a1410" rx="1"/><rect x="288" y="368" width="16" height="16" fill="#1a1410" rx="1"/><rect x="336" y="368" width="16" height="16" fill="#1a1410" rx="1"/><rect x="368" y="368" width="16" height="16" fill="#1a1410" rx="1"/><rect x="160" y="384" width="16" height="16" fill="#1a1410" rx="1"/><rect x="176" y="384" width="16" height="16" fill="#1a1410" rx="1"/><rect x="192" y="384" width="16" height="16" fill="#1a1410" rx="1"/><rect x="288" y="384" width="16" height="16" fill="#1a1410" rx="1"/><rect x="304" y="384" width="16" height="16" fill="#1a1410" rx="1"/><rect x="320" y="384" width="16" height="16" fill="#1a1410" rx="1"/>
  </g>
  <!-- URL: https://pentimento-webar.vercel.app -->
  <!-- NOTE: This is a visual placeholder. Replace with a real QR code. -->
  <!-- Use https://www.qr-code-generator.com or similar tool. -->
</svg>